<svg xmlns="http://www.w3.org/2000/svg" width="512" height="512" viewBox="0 0 512 512"><rect width="512" height="512" fill="#0a0a0a"/><path d="M155.10 54.70L156.90 54.70Q160.50 54.90 160.50 56.70L158.70 58.70Q160.70 58.70 160.70 59.70Q162.50 59.70 174.90 56.70Q180.70 58.70 185.50 58.70L190.70 58.70L190.70 56.70L192.50 56.70Q203.10 58.90 203.30 59.70Q212.50 57.70 222.90 57.70Q230.10 57.70 242.30 58.70Q257.50 57.70 267.10 57.70L279.70 58.70Q279.90 56.70 283.50 56.70Q288.50 57.70 288.50 58.70Q292.10 57.70 294.10 57.70L297.30 58.70L301.10 57.70Q324.10 60.10 324.10 61.70L332.70 60.50L343.50 63.70Q355.50 62.70 363.30 62.70Q365.10 62.70 365.10 63.70Q394.90 61.70 398.70 59.70L416.30 61.70L438.10 58.70L455.70 64.50Q455.70 63.70 457.30 63.70Q457.30 65.70 464.50 65.70L464.50 66.70L461.30 66.70L464.50 69.70Q460.50 76.50 454.10 76.50L454.30 79.50Q461.70 79.50 461.70 81.70L461.70 82.50L459.70 82.50L456.30 81.70L456.30 82.50L459.90 85.70L458.10 87.50Q459.90 89.50 460.10 90.50L456.50 89.50L454.50 89.50L452.70 93.50Q454.70 93.50 454.70 94.50Q452.70 94.50 452.70 95.50Q454.70 95.50 454.70 96.30Q451.90 96.30 449.70 101.50L455.10 106.30Q449.90 106.30 450.10 115.30L452.10 117.50Q449.70 124.30 446.50 124.30L452.50 129.30Q452.50 130.30 450.50 130.30L455.90 136.10L455.90 137.30L450.70 135.30L448.70 135.30L452.90 143.30L450.90 143.30Q452.90 145.30 452.90 146.10Q453.10 149.30 451.30 153.30L453.30 159.90Q452.70 171.90 449.90 171.90Q449.90 173.10 451.70 173.10L450.10 182.90Q450.10 183.90 452.10 185.90Q450.30 187.90 450.30 188.90Q453.10 188.90 457.50 192.90L457.50 193.90L450.50 193.90Q451.70 204.90 454.50 204.90L452.90 209.70L453.10 216.90L456.30 219.70L455.10 221.70Q456.30 223.50 456.50 225.70L455.30 227.50Q458.50 227.90 458.50 229.70L458.90 243.50L457.10 245.50Q460.90 245.70 460.90 247.50L457.10 250.50Q460.10 250.50 462.70 253.50L459.30 256.50L462.70 256.50L462.90 259.30L461.30 261.50Q462.90 261.50 462.90 262.50L459.50 262.50L459.50 268.50L463.10 268.50L463.10 270.50Q459.70 270.50 459.70 271.30L461.70 276.50L457.90 277.30L459.90 279.30L459.90 283.30L458.30 289.30Q462.10 293.30 462.30 296.30Q458.50 296.50 458.50 298.30Q460.50 303.90 460.70 307.10L457.50 308.30Q458.90 309.10 461.10 323.10Q459.10 323.10 459.30 324.10Q463.10 324.30 463.10 326.10L463.10 329.10Q463.30 330.10 461.30 330.10Q466.90 334.50 466.90 336.10Q465.10 338.10 465.10 338.90Q468.90 339.30 468.90 340.90L465.30 344.10L465.30 344.90L469.10 348.10Q465.30 348.10 465.30 349.90L465.50 350.90Q466.90 356.90 470.70 356.90L465.70 361.90L465.70 362.70Q469.70 366.70 470.90 366.70L469.70 368.70L470.10 381.70L477.30 385.70L473.50 386.70L470.30 385.70L470.30 386.70L473.50 389.70L473.70 392.70Q473.70 397.70 468.70 397.70Q469.10 416.50 476.30 416.50Q476.30 421.50 472.50 421.50L474.50 426.30L474.90 436.30L478.70 439.50L478.90 440.30L468.10 447.50L468.10 449.30L466.50 449.30Q462.70 449.30 462.70 446.30Q454.10 448.30 450.30 448.30L447.10 447.50L443.50 448.30Q440.30 447.50 436.50 447.50Q432.70 448.30 431.10 448.30L431.10 449.30L436.70 453.30L432.90 454.30L431.30 454.30Q431.10 450.30 427.30 450.30L406.30 454.30L389.90 453.30L386.70 454.30Q383.10 453.30 381.30 453.30L372.30 454.30Q372.30 452.30 368.70 452.30L363.70 454.30L361.70 454.30Q360.10 454.30 360.10 453.30Q329.50 455.30 326.30 457.30Q326.30 453.70 290.70 450.30L276.70 452.30Q274.70 452.30 274.70 451.50L267.70 452.30Q251.70 451.50 251.70 450.30L247.90 451.50Q244.90 449.30 222.70 448.30Q222.90 450.30 219.70 450.30Q202.70 448.30 193.10 448.30L174.70 448.30Q170.90 448.30 168.10 449.30Q161.90 447.50 151.70 447.50Q150.50 447.50 150.50 448.30L120.10 446.30Q84.50 449.30 84.70 452.30L82.70 452.30Q82.70 449.30 79.50 449.30Q79.50 451.50 75.70 451.50Q47.10 448.90 46.90 443.50L48.90 441.30Q46.50 435.50 41.70 435.50L41.50 433.50L44.70 433.50Q44.70 427.50 37.50 427.50L37.50 426.30L41.30 426.30L41.30 422.50L43.10 417.50Q39.30 417.50 39.10 415.70Q41.10 413.50 40.90 412.50Q39.10 412.50 39.10 411.70Q42.90 411.70 42.90 409.50L42.90 408.50Q42.70 406.50 38.90 406.50L42.70 402.50Q38.70 402.50 38.70 400.70L38.70 399.70Q47.70 399.70 47.30 389.70Q43.50 389.70 43.50 387.70L43.50 386.70Q46.90 386.70 48.90 383.90L44.90 367.90L48.30 366.70L44.50 353.90L46.30 353.90Q43.90 345.10 40.90 342.90Q40.90 341.90 42.30 341.90Q40.70 332.10 36.90 332.10L38.70 330.10L38.50 326.10L34.70 326.90L33.10 325.10L36.70 325.10Q36.50 322.90 34.50 321.10Q36.50 318.10 38.30 318.10L36.30 316.30Q38.30 314.10 38.30 313.10Q34.30 313.10 34.30 311.10L38.10 308.30L37.90 305.10Q37.90 302.30 35.90 302.30L37.70 297.30L37.10 272.50Q36.90 270.30 38.90 268.50L34.90 261.50Q37.70 261.50 39.90 257.50L38.30 251.50Q38.30 250.50 39.70 250.50L38.30 248.70L38.30 245.50Q38.10 243.30 39.30 241.50L39.30 238.70Q41.30 238.70 43.10 233.70Q42.90 232.70 41.10 232.70L42.90 228.70Q42.90 226.70 40.90 226.70L42.70 219.70L42.30 211.70Q42.90 209.70 45.90 209.70Q42.10 202.30 42.10 201.90Q45.70 201.90 47.30 195.70Q45.50 194.10 45.30 191.70L47.30 191.70L45.30 189.90L48.50 186.90Q45.30 186.90 45.10 185.10Q48.30 185.10 50.30 182.90Q50.10 177.10 43.10 177.10L42.90 175.10L44.90 175.10L48.10 175.90Q48.10 175.10 46.70 173.10Q47.90 166.10 47.70 162.10L47.70 159.90L46.30 158.10L42.50 159.10L38.90 159.10L38.90 157.10Q47.50 157.10 47.50 155.10Q46.10 153.30 46.10 152.10L46.10 149.30Q44.10 149.30 44.10 148.10L45.90 146.10Q45.90 143.30 38.50 143.30L38.50 142.10L47.10 141.30L47.10 139.30L45.70 134.30L48.90 134.30Q50.30 120.70 50.30 115.30Q50.30 114.50 48.10 109.50Q53.50 109.50 53.30 96.30Q51.50 94.50 51.50 93.50Q55.10 93.50 54.90 90.50Q51.30 87.10 49.30 79.50L51.10 74.50L46.90 64.50Q56.30 56.70 64.50 56.70Q64.70 61.70 87.70 61.70L100.30 60.50L104.10 61.70Q106.30 61.70 139.50 58.70L142.70 59.70Q155.10 58.30 155.10 54.70M110.10 92.30Q102.30 93.70 99.90 93.70Q87.50 93.10 83.50 93.10Q83.50 94.50 82.90 95.70L86.90 109.30L86.30 109.30Q86.90 114.50 87.50 116.10L86.90 117.50Q86.90 122.90 88.30 122.90L94.30 167.10Q93.70 167.10 93.70 167.90Q94.70 170.10 95.70 177.30Q99.10 219.50 102.50 245.30L101.90 246.70Q103.30 270.70 104.50 273.90L103.90 278.10Q104.50 283.50 105.30 283.50Q110.10 321.50 111.30 327.70L110.70 327.70Q111.30 334.90 113.50 341.30L112.70 342.70Q114.10 351.90 114.10 357.50L118.10 392.90L117.50 399.10Q117.50 402.90 120.30 406.50Q142.70 407.30 148.10 407.90Q148.10 407.30 148.70 407.30L148.70 407.90Q150.70 407.90 152.90 406.50L152.90 407.30Q162.10 406.50 166.50 406.50L171.30 406.50L174.70 405.90Q174.70 406.50 175.30 406.50Q179.30 405.30 186.90 404.50Q187.30 404.50 189.50 405.10Q190.70 405.10 196.30 403.90Q196.30 404.50 197.10 404.50L198.50 403.90Q198.50 404.50 199.10 404.50L200.50 403.90L200.50 404.50Q207.90 403.90 207.90 399.70Q210.90 393.70 212.70 386.90Q212.70 384.70 218.10 363.70Q218.10 362.30 216.10 362.30L216.10 360.90Q219.10 360.90 220.10 356.30L219.50 354.90Q221.70 351.30 224.90 331.70L224.30 330.30Q225.70 330.30 225.70 325.70L224.90 324.30Q226.10 324.30 227.70 316.70L222.30 316.70L222.30 313.30L225.70 314.10L227.70 314.10Q230.30 304.30 232.50 299.70Q237.10 273.30 241.30 273.30Q246.70 277.90 246.70 286.10L245.30 286.90Q245.30 288.30 246.10 289.50L244.70 291.70Q246.90 308.90 248.10 313.30Q252.70 335.10 256.90 341.30Q256.90 341.90 256.30 341.90Q256.30 346.10 257.50 346.10Q261.70 368.90 264.30 375.30L263.70 376.70Q269.10 396.30 269.10 397.70L268.50 399.10Q269.90 400.50 269.90 403.10Q273.30 405.70 273.30 407.30L274.50 406.50Q275.90 406.50 275.90 407.90Q276.70 407.90 277.90 407.30L280.70 408.50L284.10 407.90L285.50 408.50L288.90 407.30L288.90 407.90Q291.70 407.90 294.30 406.50L297.10 407.30Q297.70 407.30 299.10 406.50Q299.10 407.30 299.70 407.30L302.50 407.30L303.90 406.50L316.10 409.30L317.50 408.50Q317.50 409.30 318.10 409.30L319.50 409.30L320.90 408.50L320.90 409.30L327.70 407.90L328.90 408.50L330.30 407.90L333.10 409.30L336.50 407.90Q336.50 408.50 337.10 408.50L337.90 408.50L339.10 407.90Q339.10 408.50 339.90 408.50Q352.10 408.50 355.50 407.30Q363.90 407.30 365.70 390.90L365.10 389.50L365.70 388.10Q365.70 387.50 365.10 386.10Q366.70 386.10 367.70 369.10L367.70 367.70L367.10 366.50Q368.50 366.50 368.50 365.10L368.50 363.10Q369.70 339.30 371.90 339.30L371.10 337.90L375.30 322.90Q374.50 321.70 374.50 320.10L374.50 316.10L375.30 312.70Q374.50 312.70 374.50 312.10Q375.90 304.30 375.90 301.90L375.30 295.70Q380.70 272.50 380.70 269.90Q380.70 269.10 379.90 267.90Q380.90 267.90 382.10 256.30L380.70 243.30L382.10 242.70Q385.50 199.10 389.50 199.10Q389.50 190.50 394.90 173.90Q394.30 173.90 394.30 173.30Q396.30 154.50 401.10 131.90Q405.10 109.50 405.10 101.30L405.10 97.10Q404.10 95.10 403.10 95.10L402.50 95.10Q400.30 95.10 397.70 97.10Q396.10 97.10 394.90 96.50L393.50 97.10Q392.50 97.10 390.90 95.70L389.50 95.70Q388.30 95.70 388.10 97.10Q387.50 97.10 387.50 96.50Q386.30 96.50 384.10 97.90L384.10 97.10Q380.70 97.10 373.90 97.90L371.10 97.10Q371.10 97.90 370.50 97.90L366.30 95.70Q365.30 96.50 363.70 96.50L362.30 96.50L360.30 95.10Q359.10 95.10 358.90 96.50L354.10 95.70Q352.10 95.70 352.10 97.10Q350.70 97.10 347.30 95.70L343.30 97.10Q343.30 96.50 342.50 96.50L341.90 96.50Q339.30 98.50 337.10 98.50L337.10 101.30Q337.10 105.90 335.70 108.70Q336.50 109.90 336.50 111.50L334.50 114.90Q335.10 114.90 335.10 115.50L333.70 117.50L334.50 118.90Q331.10 122.90 331.10 126.30Q333.10 126.30 333.10 128.50L331.70 128.50L332.30 132.50Q331.70 133.90 331.70 134.50Q331.70 135.50 333.10 137.30Q331.10 137.30 331.10 138.70L331.10 141.30L331.70 141.30L333.70 139.90L333.70 141.30Q332.30 141.30 332.30 143.30Q328.30 145.50 328.30 146.70L328.90 148.10L330.30 147.50L330.30 148.90L329.70 148.90L326.90 153.50Q326.90 154.30 327.70 155.70Q326.90 157.70 326.30 157.70Q325.30 168.90 322.90 173.30L323.50 174.70Q322.30 174.70 320.10 186.30Q320.10 187.50 321.50 187.50Q319.50 189.10 318.10 197.70Q318.70 197.70 318.70 198.50Q318.30 201.10 316.70 201.10Q316.70 212.50 312.70 220.30L312.70 224.30L311.90 224.30Q308.50 231.90 305.90 235.90L305.10 235.90L305.10 234.50Q302.90 222.70 298.30 219.50L299.70 219.50L299.70 218.10Q299.70 217.50 299.10 217.50Q298.30 211.30 297.10 211.30L295.70 211.30L294.30 212.10Q294.30 216.90 295.70 220.30L294.30 220.30Q293.10 220.30 292.30 216.90L293.70 214.70L293.70 214.10Q287.10 211.10 286.90 210.10L290.90 210.70Q291.90 210.70 297.70 209.30L297.70 206.70Q295.90 204.50 292.90 189.70Q290.70 173.30 288.90 173.30Q286.70 156.90 284.70 156.90Q284.70 156.30 285.50 156.30Q285.50 152.50 284.10 146.10L284.70 144.70L284.10 143.30Q284.70 143.30 284.70 142.70L284.10 141.30L284.70 141.30L284.10 133.10L284.10 131.10Q283.10 129.10 282.10 129.10L277.30 129.10L277.30 127.70L277.90 126.30Q280.30 127.70 282.10 127.70L282.10 125.70Q282.10 122.50 281.30 118.90Q282.10 116.50 282.10 116.10Q280.10 104.50 278.70 102.50Q279.30 101.30 279.30 99.90Q278.30 94.50 276.70 94.50L275.90 94.50L274.50 95.10L274.50 94.50L267.70 95.10L266.50 94.50Q265.30 95.10 263.70 95.10L262.30 95.10Q260.90 95.10 259.70 94.50Q251.90 95.10 245.30 96.50L244.70 95.10Q241.90 95.10 236.50 96.50Q229.30 95.10 229.10 95.10L227.70 95.70Q227.70 95.10 226.90 95.10L226.30 95.10L224.90 95.70L224.90 95.10Q220.50 95.10 213.30 94.50L209.90 95.10L208.70 94.50Q204.30 94.50 201.90 108.70L202.50 110.10Q200.50 118.70 198.50 135.30Q199.10 135.30 199.10 135.90Q199.10 137.30 197.70 137.30L198.50 141.30Q197.50 143.30 196.30 143.30Q196.30 144.10 197.10 145.50Q195.10 147.70 195.10 156.90L195.70 158.30Q194.30 158.30 194.30 161.70L195.10 164.50Q192.90 165.50 192.90 166.50L192.90 169.30L193.70 176.10L192.30 176.70Q191.50 182.70 190.30 184.10L190.30 185.50L190.90 188.90L188.90 190.30Q188.90 190.90 189.50 192.30Q189.50 193.10 188.90 193.10Q185.70 230.50 182.10 230.50Q174.90 249.90 173.30 251.50Q170.90 245.90 168.50 233.10L168.50 220.90Q165.70 198.50 164.50 193.70Q165.10 193.70 165.10 193.10Q165.10 183.30 160.30 163.10Q161.10 163.10 161.10 162.50Q160.30 155.10 157.70 146.70Q157.70 134.50 151.50 110.70L152.10 106.70L152.10 105.30Q150.90 98.70 150.90 96.50Q150.90 94.50 143.30 93.10L141.90 93.70L141.90 93.10Q139.70 93.10 138.50 93.70L133.90 93.10L129.70 93.70L128.30 93.10L124.90 93.70L122.30 93.10Q121.50 93.10 120.30 93.70L112.10 92.30Q112.10 93.10 111.30 93.10L110.10 92.30M260.90 109.30L262.30 109.30L262.30 110.10L260.90 110.10L260.90 109.30M247.30 110.10L250.70 110.70L250.70 111.50L247.30 112.10L246.10 112.10L247.30 110.10M340.50 125.70Q341.30 125.70 342.50 125.10Q345.10 127.70 347.30 127.70L347.30 128.50L346.70 128.50Q342.90 126.30 340.50 126.30L340.50 125.70M354.90 150.90L359.50 150.90L359.50 151.50L354.90 151.50L354.90 150.90M248.10 159.10Q249.30 159.10 253.50 157.70L253.50 159.10Q253.50 160.10 250.70 161.10Q248.10 160.10 248.10 159.10M260.30 168.50L263.10 168.50L263.10 169.30L260.30 169.30L260.30 168.50M143.30 173.90L144.10 173.90L144.10 175.30L143.30 175.30L143.30 173.90M251.50 189.70L252.10 189.70L261.70 192.30L261.70 193.10L260.90 194.30Q256.30 190.90 251.50 190.90L251.50 189.70M327.70 190.90L328.90 191.70L328.30 193.10L326.90 192.30L327.70 190.90M335.10 191.70L336.50 191.70L336.50 192.30L335.10 192.30L335.10 191.70M233.70 192.30L235.10 192.30L235.10 193.10L233.70 193.10L233.70 192.30M265.70 193.70L267.70 193.70L267.70 195.10L267.10 195.10Q265.90 195.10 265.70 193.70M222.90 199.10Q222.90 197.90 224.30 197.70L224.30 199.10L222.90 199.10M265.10 207.90Q265.10 206.70 266.50 206.70L267.70 206.70Q269.10 206.70 269.10 207.90L269.10 213.50L268.50 213.50Q268.50 207.90 265.10 207.90M376.50 206.70L377.90 206.70L377.90 207.90Q376.70 207.90 376.50 206.70M319.50 207.30L320.90 207.30L320.90 207.90L319.50 207.90L319.50 207.30M343.30 207.30Q344.70 207.30 344.70 208.70L342.50 208.70L343.30 207.30M326.90 208.70L327.70 208.70L327.70 210.10L326.90 210.10L326.90 208.70M273.90 209.30L274.50 209.30L277.90 210.10L277.90 210.70L276.70 210.70L273.90 210.10L273.90 209.30M274.50 220.90L277.90 221.50L277.90 222.30L274.50 222.30L274.50 220.90M339.10 220.90L339.90 220.90Q341.30 220.90 341.30 222.30L341.30 222.90Q339.10 221.90 339.10 220.90M262.30 224.90L265.70 225.70L265.70 227.10L264.30 227.10Q262.30 226.10 262.30 224.90M341.90 224.90L342.50 224.90Q342.50 226.30 345.30 229.10L341.90 229.70Q340.70 229.70 340.50 228.30Q341.90 226.70 341.90 224.90M299.10 230.50L301.70 230.50Q301.70 230.70 301.10 233.10Q299.10 232.10 299.10 231.10L299.10 230.50M318.10 231.70Q318.10 230.50 319.50 230.50L319.50 231.70Q319.50 233.10 318.10 233.10L318.10 231.70M218.10 233.10L221.50 232.50L222.90 233.10Q222.90 234.50 221.50 237.30Q220.50 237.30 218.10 233.10M193.70 233.90L195.10 233.90Q195.10 235.10 193.70 235.10L193.70 233.90M265.10 235.10L267.70 235.90L267.70 237.30Q267.10 237.30 265.70 237.90Q264.50 237.90 264.30 236.50L265.10 235.10M275.30 241.30L277.30 241.30L277.30 243.30L276.70 243.30Q275.50 243.30 275.30 241.90L275.30 241.30M308.50 243.30Q309.70 241.30 310.70 241.30L311.90 241.30L311.90 241.90Q311.90 243.10 309.30 244.10Q309.30 243.30 308.50 243.30M256.30 241.90L257.50 241.90L257.50 242.70L256.30 242.70L256.30 241.90M288.90 244.70Q290.50 241.90 291.50 241.90Q292.90 241.90 292.90 243.30Q291.70 243.30 289.50 244.70L288.90 244.70M245.30 244.10Q245.30 242.90 246.70 242.70Q248.10 242.70 248.10 244.10L248.10 245.30L245.30 244.10M239.30 243.30L240.50 243.30L240.50 244.10L239.30 244.10L239.30 243.30M264.30 247.50L265.70 247.50L265.70 248.10L264.30 248.10L264.30 247.50M324.90 250.10Q326.70 250.70 328.30 253.50L327.70 253.50Q325.50 251.50 324.30 251.50L324.90 250.10M226.30 254.30Q226.30 253.30 229.10 252.10Q230.10 254.30 231.10 254.30Q230.10 256.30 229.10 256.30L227.70 256.30Q226.50 256.30 226.30 254.90L226.30 254.30M247.30 252.10Q249.10 253.50 250.10 253.50L250.10 254.30Q248.50 256.90 247.30 256.90L246.10 256.90Q246.10 255.50 247.30 252.10M308.50 252.10L311.90 252.90L311.90 253.50Q311.30 253.50 309.90 254.30Q309.90 253.50 308.50 253.50L308.50 252.10M299.70 252.90L301.10 252.90L301.10 253.50L299.70 253.50L299.70 252.90M265.10 254.90Q265.10 253.70 266.50 253.50Q267.70 253.50 267.70 254.90Q266.10 257.70 265.10 257.70L265.10 254.90M237.90 254.90L239.90 254.90L239.90 256.30L239.30 256.30Q238.10 256.30 237.90 254.90M267.10 260.30Q270.70 261.10 271.10 261.10Q271.10 263.50 270.50 264.50Q270.10 264.50 266.50 263.10L266.50 261.70L267.10 260.30M195.70 261.10L196.30 261.10Q198.50 261.10 198.50 262.30L198.50 263.10Q196.70 261.70 195.70 261.70L195.70 261.10M236.50 261.10L237.90 261.10L237.90 263.10Q236.70 263.10 236.50 261.70L236.50 261.10M177.30 261.70Q179.50 263.10 181.50 263.10L186.10 263.10Q186.10 263.70 186.90 265.10L186.10 266.50Q185.30 266.50 179.30 265.70Q176.70 265.70 176.70 268.50L175.90 268.50L175.30 265.10Q177.30 262.90 177.30 261.70M293.70 263.10L297.10 263.70L296.30 265.10L293.70 264.50L293.70 263.10M206.50 264.50Q211.30 265.30 211.30 266.50L211.30 267.10L207.90 267.10Q206.70 267.10 206.50 265.70L206.50 264.50M286.10 264.50Q289.50 264.90 289.50 266.50L289.50 267.10L286.10 266.50L284.70 266.50Q283.70 271.90 281.30 271.90L280.70 270.50L280.70 269.90Q282.10 268.10 282.10 266.50Q286.10 265.30 286.10 264.50M315.30 265.10L320.10 265.10L320.10 265.70Q317.70 265.70 316.10 267.10L315.30 267.10L315.30 265.10M246.70 271.30Q248.10 271.30 248.10 272.50L248.10 273.30L247.30 273.30L246.10 272.50L246.70 271.30M207.90 275.30Q207.90 274.30 210.70 273.30L214.70 274.70L214.70 275.30Q213.50 275.30 211.30 276.70Q209.10 275.30 207.90 275.30M317.50 273.90L319.50 273.90Q319.50 275.30 318.10 275.30L317.50 275.30L317.50 273.90M275.30 284.90L277.30 284.90L277.30 286.10L276.70 286.10Q275.50 286.10 275.30 284.90M175.90 288.30Q177.30 288.30 177.30 289.50L177.30 290.30Q176.10 290.30 175.90 288.90L175.90 288.30M163.70 288.90Q165.70 289.90 165.70 290.90L163.10 290.90L163.10 290.30L163.70 288.90M316.10 289.50L318.70 290.30L318.70 290.90L318.10 290.90Q316.10 290.90 316.10 289.50M178.70 290.30L182.10 290.30L182.10 290.90L178.70 290.90L178.70 290.30M170.50 290.90L171.90 290.90L171.90 291.70L170.50 291.70L170.50 290.90M167.10 293.70L168.50 293.70L168.50 295.10L167.10 295.10L167.10 293.70M292.90 297.10Q294.70 297.10 298.30 295.10Q299.70 295.70 300.50 295.70L300.50 297.10L297.10 297.70L292.90 297.70L292.90 297.10M174.70 296.30L176.70 296.30L175.90 297.70Q174.90 297.70 174.70 296.30M181.50 297.70Q181.50 296.50 182.70 296.30L185.50 296.30L186.90 297.10Q183.90 301.10 182.70 301.10L181.50 301.10L181.50 297.70M321.50 296.30Q322.90 297.10 323.50 297.10L323.50 299.10Q321.90 297.70 320.90 297.70L321.50 296.30M284.70 297.10Q288.50 297.70 292.30 297.70Q290.90 299.30 290.90 301.90Q285.90 298.50 284.10 298.50L284.70 297.10M358.30 298.50L359.50 298.50L359.50 299.10L358.30 299.10L358.30 298.50M363.70 299.10L365.70 299.10L365.70 299.70L363.70 299.70L363.70 299.10M175.30 303.10L176.70 303.10L176.70 303.90L175.30 303.90L175.30 303.10M201.90 304.50Q201.90 303.30 203.10 303.10L203.10 304.50L201.90 304.50M185.50 304.50L188.90 305.30Q188.90 306.50 187.50 306.50Q185.50 305.50 185.50 304.50M307.30 304.50L308.50 304.50L308.50 305.90L307.30 305.90L307.30 304.50M332.30 304.50Q333.50 304.50 335.70 309.30L335.70 309.90L331.70 306.50Q332.30 305.30 332.30 304.50M353.50 306.50Q358.50 306.50 361.70 304.50Q362.90 304.50 362.90 305.90L362.90 306.50Q360.30 306.90 360.30 308.70Q358.50 307.30 353.50 307.30L353.50 306.50M326.90 305.30L328.30 305.30L328.30 305.90L326.90 305.90L326.90 305.30M314.10 306.50L315.30 306.50L315.30 307.90L314.10 307.90L314.10 306.50M340.50 307.90L343.30 307.90L339.90 311.30L338.50 310.70L340.50 307.90M369.70 310.70L371.90 310.70L371.90 311.30L369.70 311.30L369.70 310.70M341.90 314.10Q343.30 314.10 343.30 315.50L341.90 315.50L341.90 314.10M327.70 314.70L328.30 314.70Q329.70 314.70 329.70 316.10L328.90 316.10Q327.90 316.10 327.70 314.70M209.90 316.10L210.70 316.10Q213.10 316.70 217.50 316.70Q217.50 318.10 216.10 318.10L212.70 318.10Q211.10 316.70 209.90 316.70L209.90 316.10M294.90 316.10L297.10 316.10L297.10 316.70L294.90 316.70L294.90 316.10M253.50 316.70L254.90 317.50L254.10 318.90L252.90 318.10L253.50 316.70M322.10 317.50L323.50 317.50L323.50 318.10L322.10 318.10L322.10 317.50M169.10 318.90L169.90 318.90Q171.30 318.90 171.30 320.10L170.50 320.10Q169.30 320.10 169.10 318.90M334.50 320.90L337.10 321.50Q337.10 322.50 334.50 323.50L333.70 323.50L333.70 322.30L334.50 320.90M341.90 320.90L343.30 320.90L344.70 321.50L343.90 325.70L343.30 325.70Q343.30 323.10 341.90 321.50L341.90 320.90M290.30 322.90Q294.30 325.90 294.30 326.90L292.90 326.90Q291.50 326.70 290.30 323.50L290.30 322.90M193.70 323.50L195.10 323.50L195.10 324.30L193.70 324.30L193.70 323.50M186.90 326.30Q186.90 325.10 188.30 324.90L188.30 325.70Q188.30 326.90 186.90 326.90L186.90 326.30M323.50 325.70Q330.10 325.70 330.30 324.90Q330.30 325.70 331.10 325.70Q331.10 327.50 324.30 328.30Q324.30 326.90 323.50 325.70M178.70 325.70L180.10 326.30L182.10 326.30L183.50 325.70Q183.50 326.30 184.10 326.30L183.50 327.70L183.50 330.30Q183.50 331.70 187.50 331.70L187.50 332.50L184.90 332.50Q179.70 328.30 178.70 328.30L178.70 325.70M271.90 325.70L273.30 325.70L273.30 326.30L271.90 326.30L271.90 325.70M197.10 326.30L197.70 326.30Q197.70 329.10 200.50 329.10L200.50 329.70L196.30 329.70L197.10 326.30M309.90 326.30L313.30 326.30L314.10 329.70L314.10 330.30Q309.90 327.30 309.90 326.30M165.10 326.90L165.70 326.90Q165.70 329.10 166.50 331.70L165.10 331.70L165.10 326.90M154.90 329.70L155.50 329.70L155.50 331.70L154.90 331.70L154.90 329.70M295.70 333.10L296.30 333.10L296.30 334.50L295.70 334.50L295.70 333.10M153.50 335.90L156.30 335.10L158.30 335.10L158.30 335.90Q156.70 335.90 153.50 337.90L153.50 335.90M177.30 338.50L178.70 338.50L178.70 339.30L177.30 339.30L177.30 338.50M333.70 341.30L335.10 341.30L335.10 341.90L333.70 341.90L333.70 341.30M351.50 346.10L352.70 346.10L352.70 346.70L351.50 346.70L351.50 346.10M171.90 348.70Q173.30 348.70 173.30 350.10L173.30 350.70L171.90 350.70L171.90 348.70M177.30 350.10L178.70 350.10L178.70 350.70L177.30 350.70L177.30 350.10M146.10 351.50Q147.50 351.50 147.50 352.90Q146.70 352.90 145.30 353.50L145.30 352.90L146.10 351.50M158.30 352.10L159.70 352.10L159.70 352.90L158.30 352.90L158.30 352.10M356.10 354.10L357.50 354.10L357.50 355.50Q356.30 355.50 356.10 354.10M156.90 356.30Q158.50 356.30 159.70 355.50L160.30 356.90L160.30 357.50L156.90 357.50L156.90 356.30M144.70 356.30L145.30 356.30Q147.90 358.30 150.10 358.30L150.10 358.90L147.50 358.90Q144.70 357.30 144.70 356.30M163.70 357.50Q164.50 358.30 169.10 358.30Q169.10 359.70 167.90 359.70L165.70 359.70L163.70 358.30L163.70 357.50M155.50 362.30L157.70 362.30L157.70 363.10L155.50 363.10L155.50 362.30M194.30 363.70L195.70 363.70L195.70 364.30L194.30 364.30L194.30 363.70M265.70 377.30L267.10 377.30L267.10 377.90L265.70 377.90L265.70 377.30M294.90 401.70L296.30 401.70L296.30 403.10L294.90 403.10" fill="#c9a84c"/></svg>
